<svg id="Layer_1" enable-background="new 0 0 512 512" height="512" viewBox="0 0 512 512" width="512" xmlns="http://www.w3.org/2000/svg"><g><path d="m68.435 202.36c0-100.395 78.489-182.694 178.687-187.363 4.139-.193 7.339-3.706 7.147-7.844-.193-4.139-3.713-7.307-7.844-7.147-52.077 2.427-100.655 24.553-136.786 62.304-73.739 77.046-74.694 197.198-4.294 275.473 1.481 1.647 3.527 2.485 5.58 2.485 1.788 0 3.582-.635 5.016-1.925 3.08-2.771 3.332-7.515.561-10.596-30.997-34.463-48.067-78.993-48.067-125.387z"/><path d="m406.213 66.438c-33.528-37.03-79.231-60.3-128.692-65.525-4.125-.416-7.815 2.554-8.251 6.674-.435 4.121 2.553 7.815 6.674 8.251 95.564 10.093 167.628 90.28 167.629 186.522 0 103.426-84.143 187.569-187.569 187.569-43.159 0-85.293-15.016-118.642-42.282-3.208-2.621-7.936-2.149-10.558 1.06-2.622 3.208-2.148 7.935 1.06 10.558 19.253 15.741 41.219 27.699 64.613 35.424v39.278c0 9.653 7.854 17.507 17.507 17.507h7.003v48.02c0 6.895 5.61 12.505 12.505 12.505h53.022c6.895 0 12.505-5.61 12.505-12.505v-48.02h7.003c9.654 0 17.507-7.854 17.507-17.507v-39.246c80.677-26.711 139.049-102.843 139.049-192.362 0-50.354-18.596-98.625-52.365-135.921zm-126.199 430.556h-48.02v-45.519h48.02zm24.51-63.027c0 1.379-1.122 2.501-2.501 2.501h-92.039c-1.38 0-2.501-1.122-2.501-2.501v-34.959c15.792 3.902 32.087 5.927 48.52 5.927 16.72 0 32.968-2.051 48.52-5.888v34.92z"/><path d="m397.406 140.764c3.712-1.844 5.225-6.347 3.381-10.058-13.194-26.557-33.434-49.001-58.533-64.907-106.721-67.634-247.809 9.201-247.809 136.561 0 89.083 72.475 161.558 161.558 161.558 105.804 0 183.882-100.892 155.948-203.835-1.085-4.001-5.209-6.362-9.206-5.277-4 1.085-6.362 5.207-5.277 9.206 25.338 93.384-45.493 184.899-141.465 184.899-80.809 0-146.552-65.743-146.552-146.552s65.743-146.551 146.553-146.551c56.017 0 106.346 31.258 131.344 81.575 1.844 3.712 6.347 5.223 10.058 3.381z"/><path d="m341.686 280.402c2.162 0 4.308-.93 5.792-2.729 63.273-76.718 8.765-193.854-91.475-193.854-100.133 0-154.837 117.029-91.475 193.854 2.638 3.198 7.367 3.651 10.563 1.014 3.197-2.637 3.651-7.366 1.014-10.563-13.643-16.541-21.779-36.992-23.34-58.262h24.714c4.144 0 7.503-3.359 7.503-7.503s-3.359-7.503-7.503-7.503h-24.737c1.649-22.913 10.784-43.786 24.97-60.175 18.649 18.649 18.649 19.657 22.765 19.657 6.627 0 10.045-8.068 5.306-12.809l-17.46-17.46c16.389-14.187 37.262-23.321 60.175-24.97v24.737c0 4.144 3.359 7.503 7.503 7.503s7.503-3.359 7.503-7.503v-24.736c22.913 1.649 43.786 10.784 60.175 24.97l-17.46 17.46c-2.93 2.931-2.93 7.681 0 10.612 1.465 1.464 3.386 2.197 5.306 2.197s3.84-.733 5.306-2.197l17.46-17.46c14.187 16.389 23.321 37.262 24.97 60.175h-24.737c-4.144 0-7.503 3.359-7.503 7.503s3.359 7.503 7.503 7.503h24.714c-1.561 21.27-9.696 41.72-23.34 58.262-4.039 4.901-.512 12.277 5.788 12.277z"/><path d="m256.004 234.206c5.803 0 11.243-1.568 15.934-4.291l37.535 37.535c1.465 1.465 3.386 2.197 5.306 2.197s3.84-.733 5.306-2.197c2.93-2.931 2.93-7.681 0-10.612l-37.292-37.292c3.195-4.962 5.057-10.86 5.057-17.187 0-17.56-14.286-31.846-31.846-31.846-6.328 0-12.225 1.863-17.187 5.057l-13.882-13.882c-2.931-2.929-7.681-2.929-10.612 0-2.93 2.931-2.93 7.681 0 10.612l14.126 14.126c-2.723 4.69-4.291 10.131-4.291 15.934-.001 17.56 14.286 31.846 31.846 31.846zm0-48.686c9.286 0 16.84 7.554 16.84 16.84s-7.554 16.84-16.84 16.84-16.84-7.554-16.84-16.84 7.554-16.84 16.84-16.84z"/></g></svg>